<?xml version="1.0" encoding="UTF-8"?><svg xmlns="http://www.w3.org/2000/svg" xmlns:xlink="http://www.w3.org/1999/xlink" fill-opacity="1" color-rendering="auto" color-interpolation="auto" text-rendering="auto" stroke="black" stroke-linecap="square" width="415" stroke-miterlimit="10" shape-rendering="auto" stroke-opacity="1" fill="black" stroke-dasharray="none" font-weight="normal" stroke-width="1" height="331" font-family="'Dialog'" font-style="normal" stroke-linejoin="miter" font-size="12px" stroke-dashoffset="0" image-rendering="auto">
  <!--Generated by ySVG 2.5-->
  <defs id="genericDefs"/>
  <g>
    <defs id="defs1">
      <linearGradient x1="53.5625" gradientUnits="userSpaceOnUse" x2="94.5" y1="150.125" y2="178.125" id="linearGradient1" spreadMethod="reflect">
        <stop stop-opacity="1" stop-color="rgb(232,238,247)" offset="0%"/>
        <stop stop-opacity="1" stop-color="rgb(0,204,255)" offset="100%"/>
      </linearGradient>
      <linearGradient x1="-27.5625" gradientUnits="userSpaceOnUse" x2="72.4375" y1="94.75" y2="134.75" id="linearGradient2" spreadMethod="reflect">
        <stop stop-opacity="1" stop-color="rgb(232,238,247)" offset="0%"/>
        <stop stop-opacity="1" stop-color="rgb(0,204,255)" offset="100%"/>
      </linearGradient>
      <linearGradient x1="34.0312" gradientUnits="userSpaceOnUse" x2="114.0312" y1="193.5" y2="221.5" id="linearGradient3" spreadMethod="reflect">
        <stop stop-opacity="1" stop-color="rgb(232,238,247)" offset="0%"/>
        <stop stop-opacity="1" stop-color="rgb(0,204,255)" offset="100%"/>
      </linearGradient>
      <linearGradient x1="-87.9219" gradientUnits="userSpaceOnUse" x2="-46.9844" y1="367" y2="395" id="linearGradient4" spreadMethod="reflect">
        <stop stop-opacity="1" stop-color="rgb(232,238,247)" offset="0%"/>
        <stop stop-opacity="1" stop-color="rgb(255,255,153)" offset="100%"/>
      </linearGradient>
      <linearGradient x1="-30.3438" gradientUnits="userSpaceOnUse" x2="49.6562" y1="367" y2="395" id="linearGradient5" spreadMethod="reflect">
        <stop stop-opacity="1" stop-color="rgb(232,238,247)" offset="0%"/>
        <stop stop-opacity="1" stop-color="rgb(255,255,153)" offset="100%"/>
      </linearGradient>
      <linearGradient x1="67.3125" gradientUnits="userSpaceOnUse" x2="108.25" y1="367" y2="395" id="linearGradient6" spreadMethod="reflect">
        <stop stop-opacity="1" stop-color="rgb(232,238,247)" offset="0%"/>
        <stop stop-opacity="1" stop-color="rgb(255,255,153)" offset="100%"/>
      </linearGradient>
      <linearGradient x1="105.1562" gradientUnits="userSpaceOnUse" x2="140" y1="150.125" y2="178.125" id="linearGradient7" spreadMethod="reflect">
        <stop stop-opacity="1" stop-color="rgb(232,238,247)" offset="0%"/>
        <stop stop-opacity="1" stop-color="rgb(0,204,255)" offset="100%"/>
      </linearGradient>
      <linearGradient x1="-49.625" gradientUnits="userSpaceOnUse" x2="-8.6875" y1="150.125" y2="178.125" id="linearGradient8" spreadMethod="reflect">
        <stop stop-opacity="1" stop-color="rgb(232,238,247)" offset="0%"/>
        <stop stop-opacity="1" stop-color="rgb(0,204,255)" offset="100%"/>
      </linearGradient>
      <linearGradient x1="1.9688" gradientUnits="userSpaceOnUse" x2="42.9062" y1="150.125" y2="178.125" id="linearGradient9" spreadMethod="reflect">
        <stop stop-opacity="1" stop-color="rgb(232,238,247)" offset="0%"/>
        <stop stop-opacity="1" stop-color="rgb(0,204,255)" offset="100%"/>
      </linearGradient>
      <linearGradient x1="-101.2188" gradientUnits="userSpaceOnUse" x2="-60.2812" y1="150.125" y2="178.125" id="linearGradient10" spreadMethod="reflect">
        <stop stop-opacity="1" stop-color="rgb(232,238,247)" offset="0%"/>
        <stop stop-opacity="1" stop-color="rgb(0,204,255)" offset="100%"/>
      </linearGradient>
      <linearGradient x1="-123.9375" gradientUnits="userSpaceOnUse" x2="-43.9375" y1="236.875" y2="264.875" id="linearGradient11" spreadMethod="reflect">
        <stop stop-opacity="1" stop-color="rgb(232,238,247)" offset="0%"/>
        <stop stop-opacity="1" stop-color="rgb(0,204,255)" offset="100%"/>
      </linearGradient>
      <linearGradient x1="-35.5" gradientUnits="userSpaceOnUse" x2="44.5" y1="236.875" y2="264.875" id="linearGradient12" spreadMethod="reflect">
        <stop stop-opacity="1" stop-color="rgb(232,238,247)" offset="0%"/>
        <stop stop-opacity="1" stop-color="rgb(0,204,255)" offset="100%"/>
      </linearGradient>
      <linearGradient x1="52.9375" gradientUnits="userSpaceOnUse" x2="132.9375" y1="236.875" y2="264.875" id="linearGradient13" spreadMethod="reflect">
        <stop stop-opacity="1" stop-color="rgb(232,238,247)" offset="0%"/>
        <stop stop-opacity="1" stop-color="rgb(0,204,255)" offset="100%"/>
      </linearGradient>
      <linearGradient x1="141.375" gradientUnits="userSpaceOnUse" x2="221.375" y1="236.875" y2="264.875" id="linearGradient14" spreadMethod="reflect">
        <stop stop-opacity="1" stop-color="rgb(232,238,247)" offset="0%"/>
        <stop stop-opacity="1" stop-color="rgb(0,204,255)" offset="100%"/>
      </linearGradient>
      <linearGradient x1="-35.5" gradientUnits="userSpaceOnUse" x2="44.5" y1="280.25" y2="308.25" id="linearGradient15" spreadMethod="reflect">
        <stop stop-opacity="1" stop-color="rgb(232,238,247)" offset="0%"/>
        <stop stop-opacity="1" stop-color="rgb(0,204,255)" offset="100%"/>
      </linearGradient>
      <linearGradient x1="-163" gradientUnits="userSpaceOnUse" x2="-83" y1="323.625" y2="351.625" id="linearGradient16" spreadMethod="reflect">
        <stop stop-opacity="1" stop-color="rgb(232,238,247)" offset="0%"/>
        <stop stop-opacity="1" stop-color="rgb(0,204,255)" offset="100%"/>
      </linearGradient>
      <linearGradient x1="-74.5625" gradientUnits="userSpaceOnUse" x2="5.4375" y1="323.625" y2="351.625" id="linearGradient17" spreadMethod="reflect">
        <stop stop-opacity="1" stop-color="rgb(232,238,247)" offset="0%"/>
        <stop stop-opacity="1" stop-color="rgb(0,204,255)" offset="100%"/>
      </linearGradient>
      <linearGradient x1="13.875" gradientUnits="userSpaceOnUse" x2="93.875" y1="323.625" y2="351.625" id="linearGradient18" spreadMethod="reflect">
        <stop stop-opacity="1" stop-color="rgb(232,238,247)" offset="0%"/>
        <stop stop-opacity="1" stop-color="rgb(0,204,255)" offset="100%"/>
      </linearGradient>
      <linearGradient x1="102.3125" gradientUnits="userSpaceOnUse" x2="182.3125" y1="323.625" y2="351.625" id="linearGradient19" spreadMethod="reflect">
        <stop stop-opacity="1" stop-color="rgb(232,238,247)" offset="0%"/>
        <stop stop-opacity="1" stop-color="rgb(0,204,255)" offset="100%"/>
      </linearGradient>
      <linearGradient x1="-145.5" gradientUnits="userSpaceOnUse" x2="-104.5625" y1="367" y2="395" id="linearGradient20" spreadMethod="reflect">
        <stop stop-opacity="1" stop-color="rgb(232,238,247)" offset="0%"/>
        <stop stop-opacity="1" stop-color="rgb(255,255,153)" offset="100%"/>
      </linearGradient>
      <clipPath clipPathUnits="userSpaceOnUse" id="clipPath1">
        <path d="M0 0 L415 0 L415 331 L0 331 L0 0 Z"/>
      </clipPath>
      <clipPath clipPathUnits="userSpaceOnUse" id="clipPath2">
        <path d="M-178 79 L237 79 L237 410 L-178 410 L-178 79 Z"/>
      </clipPath>
    </defs>
    <g fill="white" text-rendering="geometricPrecision" shape-rendering="geometricPrecision" transform="translate(178,-79)" stroke="white">
      <rect x="-178" width="415" height="331" y="79" clip-path="url(#clipPath2)" stroke="none"/>
    </g>
    <g fill="url(#linearGradient1)" text-rendering="geometricPrecision" shape-rendering="geometricPrecision" transform="matrix(1,0,0,1,178,-79)" stroke="url(#linearGradient1)">
      <path d="M63.5625 150.125 L94.5 150.125 L94.5 178.125 L53.5625 178.125 L53.5625 160.125 Z" stroke="none" clip-path="url(#clipPath2)"/>
    </g>
    <g stroke-linecap="butt" transform="matrix(1,0,0,1,178,-79)" fill="rgb(153,153,153)" text-rendering="geometricPrecision" shape-rendering="geometricPrecision" stroke="rgb(153,153,153)" stroke-miterlimit="1.45">
      <path fill="none" d="M63.5625 150.125 L94.5 150.125 L94.5 178.125 L53.5625 178.125 L53.5625 160.125 Z" clip-path="url(#clipPath2)"/>
    </g>
    <g font-size="11px" stroke-linecap="butt" transform="matrix(1,0,0,1,178,-79)" text-rendering="geometricPrecision" font-family="sans-serif" shape-rendering="geometricPrecision" stroke-miterlimit="1.45">
      <text x="65.0186" xml:space="preserve" y="167.9331" clip-path="url(#clipPath2)" stroke="none">opt</text>
    </g>
    <g fill="url(#linearGradient2)" text-rendering="geometricPrecision" shape-rendering="geometricPrecision" transform="matrix(1,0,0,1,178,-79)" stroke="url(#linearGradient2)">
      <ellipse rx="50" ry="20" clip-path="url(#clipPath2)" cx="22.4375" cy="114.75" stroke="none"/>
    </g>
    <g stroke-linecap="butt" transform="matrix(1,0,0,1,178,-79)" fill="rgb(153,153,153)" text-rendering="geometricPrecision" shape-rendering="geometricPrecision" stroke="rgb(153,153,153)" stroke-miterlimit="1.45">
      <ellipse rx="50" fill="none" ry="20" clip-path="url(#clipPath2)" cx="22.4375" cy="114.75"/>
    </g>
    <g font-size="11px" stroke-linecap="butt" transform="matrix(1,0,0,1,178,-79)" text-rendering="geometricPrecision" font-family="sans-serif" shape-rendering="geometricPrecision" font-weight="bold" stroke-miterlimit="1.45">
      <text x="-22.054" xml:space="preserve" y="118.5581" clip-path="url(#clipPath2)" stroke="none">GIS.lab Server</text>
    </g>
    <g fill="url(#linearGradient3)" text-rendering="geometricPrecision" shape-rendering="geometricPrecision" transform="matrix(1,0,0,1,178,-79)" stroke="url(#linearGradient3)">
      <path d="M44.0312 193.5 L114.0312 193.5 L114.0312 221.5 L34.0312 221.5 L34.0312 203.5 Z" stroke="none" clip-path="url(#clipPath2)"/>
    </g>
    <g stroke-linecap="butt" transform="matrix(1,0,0,1,178,-79)" fill="rgb(153,153,153)" text-rendering="geometricPrecision" shape-rendering="geometricPrecision" stroke="rgb(153,153,153)" stroke-miterlimit="1.45">
      <path fill="none" d="M44.0312 193.5 L114.0312 193.5 L114.0312 221.5 L34.0312 221.5 L34.0312 203.5 Z" clip-path="url(#clipPath2)"/>
    </g>
    <g font-size="11px" stroke-linecap="butt" transform="matrix(1,0,0,1,178,-79)" text-rendering="geometricPrecision" font-family="sans-serif" shape-rendering="geometricPrecision" stroke-miterlimit="1.45">
      <text x="57.7568" xml:space="preserve" y="211.3081" clip-path="url(#clipPath2)" stroke="none">gislab</text>
    </g>
    <g fill="url(#linearGradient4)" text-rendering="geometricPrecision" shape-rendering="geometricPrecision" transform="matrix(1,0,0,1,178,-79)" stroke="url(#linearGradient4)">
      <path d="M-87.9219 367 L-46.9844 367 L-46.9844 395 L-87.9219 395 Z" stroke="none" clip-path="url(#clipPath2)"/>
    </g>
    <g stroke-linecap="butt" transform="matrix(1,0,0,1,178,-79)" fill="rgb(153,204,255)" text-rendering="geometricPrecision" shape-rendering="geometricPrecision" stroke="rgb(153,204,255)" stroke-miterlimit="1.45">
      <path fill="none" d="M-87.9219 367 L-46.9844 367 L-46.9844 395 L-87.9219 395 Z" clip-path="url(#clipPath2)"/>
    </g>
    <g font-size="11px" stroke-linecap="butt" transform="matrix(1,0,0,1,178,-79)" text-rendering="geometricPrecision" font-family="sans-serif" shape-rendering="geometricPrecision" font-style="italic" stroke-miterlimit="1.45">
      <text x="-74.4355" xml:space="preserve" y="384.8081" clip-path="url(#clipPath2)" stroke="none">db</text>
    </g>
    <g fill="url(#linearGradient5)" text-rendering="geometricPrecision" shape-rendering="geometricPrecision" transform="matrix(1,0,0,1,178,-79)" stroke="url(#linearGradient5)">
      <path d="M-30.3438 367 L49.6562 367 L49.6562 395 L-30.3438 395 Z" stroke="none" clip-path="url(#clipPath2)"/>
    </g>
    <g stroke-linecap="butt" transform="matrix(1,0,0,1,178,-79)" fill="rgb(153,204,255)" text-rendering="geometricPrecision" shape-rendering="geometricPrecision" stroke="rgb(153,204,255)" stroke-miterlimit="1.45">
      <path fill="none" d="M-30.3438 367 L49.6562 367 L49.6562 395 L-30.3438 395 Z" clip-path="url(#clipPath2)"/>
    </g>
    <g font-size="11px" stroke-linecap="butt" transform="matrix(1,0,0,1,178,-79)" text-rendering="geometricPrecision" font-family="sans-serif" shape-rendering="geometricPrecision" font-style="italic" stroke-miterlimit="1.45">
      <text x="-11.3689" xml:space="preserve" y="384.8081" clip-path="url(#clipPath2)" stroke="none">ssh-key</text>
    </g>
    <g fill="url(#linearGradient6)" text-rendering="geometricPrecision" shape-rendering="geometricPrecision" transform="matrix(1,0,0,1,178,-79)" stroke="url(#linearGradient6)">
      <path d="M67.3125 367 L108.25 367 L108.25 395 L67.3125 395 Z" stroke="none" clip-path="url(#clipPath2)"/>
    </g>
    <g stroke-linecap="butt" transform="matrix(1,0,0,1,178,-79)" fill="rgb(153,204,255)" text-rendering="geometricPrecision" shape-rendering="geometricPrecision" stroke="rgb(153,204,255)" stroke-miterlimit="1.45">
      <path fill="none" d="M67.3125 367 L108.25 367 L108.25 395 L67.3125 395 Z" clip-path="url(#clipPath2)"/>
    </g>
    <g font-size="11px" stroke-linecap="butt" transform="matrix(1,0,0,1,178,-79)" text-rendering="geometricPrecision" font-family="sans-serif" shape-rendering="geometricPrecision" font-style="italic" stroke-miterlimit="1.45">
      <text x="82.5364" xml:space="preserve" y="384.8081" clip-path="url(#clipPath2)" stroke="none">...</text>
    </g>
    <g fill="url(#linearGradient7)" text-rendering="geometricPrecision" shape-rendering="geometricPrecision" transform="matrix(1,0,0,1,178,-79)" stroke="url(#linearGradient7)">
      <path d="M115.1562 150.125 L140 150.125 L140 178.125 L105.1562 178.125 L105.1562 160.125 Z" stroke="none" clip-path="url(#clipPath2)"/>
    </g>
    <g stroke-linecap="butt" transform="matrix(1,0,0,1,178,-79)" fill="rgb(153,153,153)" text-rendering="geometricPrecision" shape-rendering="geometricPrecision" stroke="rgb(153,153,153)" stroke-miterlimit="1.45">
      <path fill="none" d="M115.1562 150.125 L140 150.125 L140 178.125 L105.1562 178.125 L105.1562 160.125 Z" clip-path="url(#clipPath2)"/>
    </g>
    <g font-size="11px" stroke-linecap="butt" transform="matrix(1,0,0,1,178,-79)" text-rendering="geometricPrecision" font-family="sans-serif" shape-rendering="geometricPrecision" stroke-miterlimit="1.45">
      <text x="117.3333" xml:space="preserve" y="167.9331" clip-path="url(#clipPath2)" stroke="none">...</text>
    </g>
    <g fill="url(#linearGradient8)" text-rendering="geometricPrecision" shape-rendering="geometricPrecision" transform="matrix(1,0,0,1,178,-79)" stroke="url(#linearGradient8)">
      <path d="M-39.625 150.125 L-8.6875 150.125 L-8.6875 178.125 L-49.625 178.125 L-49.625 160.125 Z" stroke="none" clip-path="url(#clipPath2)"/>
    </g>
    <g stroke-linecap="butt" transform="matrix(1,0,0,1,178,-79)" fill="rgb(153,153,153)" text-rendering="geometricPrecision" shape-rendering="geometricPrecision" stroke="rgb(153,153,153)" stroke-miterlimit="1.45">
      <path fill="none" d="M-39.625 150.125 L-8.6875 150.125 L-8.6875 178.125 L-49.625 178.125 L-49.625 160.125 Z" clip-path="url(#clipPath2)"/>
    </g>
    <g font-size="11px" stroke-linecap="butt" transform="matrix(1,0,0,1,178,-79)" text-rendering="geometricPrecision" font-family="sans-serif" shape-rendering="geometricPrecision" stroke-miterlimit="1.45">
      <text x="-41.5339" xml:space="preserve" y="167.9331" clip-path="url(#clipPath2)" stroke="none">boot</text>
    </g>
    <g fill="url(#linearGradient9)" text-rendering="geometricPrecision" shape-rendering="geometricPrecision" transform="matrix(1,0,0,1,178,-79)" stroke="url(#linearGradient9)">
      <path d="M11.9688 150.125 L42.9062 150.125 L42.9062 178.125 L1.9688 178.125 L1.9688 160.125 Z" stroke="none" clip-path="url(#clipPath2)"/>
    </g>
    <g stroke-linecap="butt" transform="matrix(1,0,0,1,178,-79)" fill="rgb(153,153,153)" text-rendering="geometricPrecision" shape-rendering="geometricPrecision" stroke="rgb(153,153,153)" stroke-miterlimit="1.45">
      <path fill="none" d="M11.9688 150.125 L42.9062 150.125 L42.9062 178.125 L1.9688 178.125 L1.9688 160.125 Z" clip-path="url(#clipPath2)"/>
    </g>
    <g font-size="11px" stroke-linecap="butt" transform="matrix(1,0,0,1,178,-79)" text-rendering="geometricPrecision" font-family="sans-serif" shape-rendering="geometricPrecision" stroke-miterlimit="1.45">
      <text x="12.3076" xml:space="preserve" y="167.9331" clip-path="url(#clipPath2)" stroke="none">dev</text>
    </g>
    <g fill="url(#linearGradient10)" text-rendering="geometricPrecision" shape-rendering="geometricPrecision" transform="matrix(1,0,0,1,178,-79)" stroke="url(#linearGradient10)">
      <path d="M-91.2188 150.125 L-60.2812 150.125 L-60.2812 178.125 L-101.2188 178.125 L-101.2188 160.125 Z" stroke="none" clip-path="url(#clipPath2)"/>
    </g>
    <g stroke-linecap="butt" transform="matrix(1,0,0,1,178,-79)" fill="rgb(153,153,153)" text-rendering="geometricPrecision" shape-rendering="geometricPrecision" stroke="rgb(153,153,153)" stroke-miterlimit="1.45">
      <path fill="none" d="M-91.2188 150.125 L-60.2812 150.125 L-60.2812 178.125 L-101.2188 178.125 L-101.2188 160.125 Z" clip-path="url(#clipPath2)"/>
    </g>
    <g font-size="11px" stroke-linecap="butt" transform="matrix(1,0,0,1,178,-79)" text-rendering="geometricPrecision" font-family="sans-serif" shape-rendering="geometricPrecision" stroke-miterlimit="1.45">
      <text x="-89.2551" xml:space="preserve" y="167.9331" clip-path="url(#clipPath2)" stroke="none">bin</text>
    </g>
    <g fill="url(#linearGradient11)" text-rendering="geometricPrecision" shape-rendering="geometricPrecision" transform="matrix(1,0,0,1,178,-79)" stroke="url(#linearGradient11)">
      <path d="M-113.9375 236.875 L-43.9375 236.875 L-43.9375 264.875 L-123.9375 264.875 L-123.9375 246.875 Z" stroke="none" clip-path="url(#clipPath2)"/>
    </g>
    <g stroke-linecap="butt" transform="matrix(1,0,0,1,178,-79)" fill="rgb(153,153,153)" text-rendering="geometricPrecision" shape-rendering="geometricPrecision" stroke="rgb(153,153,153)" stroke-miterlimit="1.45">
      <path fill="none" d="M-113.9375 236.875 L-43.9375 236.875 L-43.9375 264.875 L-123.9375 264.875 L-123.9375 246.875 Z" clip-path="url(#clipPath2)"/>
    </g>
    <g font-size="11px" stroke-linecap="butt" transform="matrix(1,0,0,1,178,-79)" text-rendering="geometricPrecision" font-family="sans-serif" shape-rendering="geometricPrecision" stroke-miterlimit="1.45">
      <text x="-101.1707" xml:space="preserve" y="254.6831" clip-path="url(#clipPath2)" stroke="none">admin</text>
    </g>
    <g fill="url(#linearGradient12)" text-rendering="geometricPrecision" shape-rendering="geometricPrecision" transform="matrix(1,0,0,1,178,-79)" stroke="url(#linearGradient12)">
      <path d="M-25.5 236.875 L44.5 236.875 L44.5 264.875 L-35.5 264.875 L-35.5 246.875 Z" stroke="none" clip-path="url(#clipPath2)"/>
    </g>
    <g stroke-linecap="butt" transform="matrix(1,0,0,1,178,-79)" fill="rgb(153,153,153)" text-rendering="geometricPrecision" shape-rendering="geometricPrecision" stroke="rgb(153,153,153)" stroke-miterlimit="1.45">
      <path fill="none" d="M-25.5 236.875 L44.5 236.875 L44.5 264.875 L-35.5 264.875 L-35.5 246.875 Z" clip-path="url(#clipPath2)"/>
    </g>
    <g font-size="11px" stroke-linecap="butt" transform="matrix(1,0,0,1,178,-79)" text-rendering="geometricPrecision" font-family="sans-serif" shape-rendering="geometricPrecision" stroke-miterlimit="1.45">
      <text x="-15.7544" xml:space="preserve" y="254.6831" clip-path="url(#clipPath2)" stroke="none">custom</text>
    </g>
    <g fill="url(#linearGradient13)" text-rendering="geometricPrecision" shape-rendering="geometricPrecision" transform="matrix(1,0,0,1,178,-79)" stroke="url(#linearGradient13)">
      <path d="M62.9375 236.875 L132.9375 236.875 L132.9375 264.875 L52.9375 264.875 L52.9375 246.875 Z" stroke="none" clip-path="url(#clipPath2)"/>
    </g>
    <g stroke-linecap="butt" transform="matrix(1,0,0,1,178,-79)" fill="rgb(153,153,153)" text-rendering="geometricPrecision" shape-rendering="geometricPrecision" stroke="rgb(153,153,153)" stroke-miterlimit="1.45">
      <path fill="none" d="M62.9375 236.875 L132.9375 236.875 L132.9375 264.875 L52.9375 264.875 L52.9375 246.875 Z" clip-path="url(#clipPath2)"/>
    </g>
    <g font-size="11px" stroke-linecap="butt" transform="matrix(1,0,0,1,178,-79)" text-rendering="geometricPrecision" font-family="sans-serif" shape-rendering="geometricPrecision" stroke-miterlimit="1.45">
      <text x="75.8628" xml:space="preserve" y="254.6831" clip-path="url(#clipPath2)" stroke="none">secret</text>
    </g>
    <g fill="url(#linearGradient14)" text-rendering="geometricPrecision" shape-rendering="geometricPrecision" transform="matrix(1,0,0,1,178,-79)" stroke="url(#linearGradient14)">
      <path d="M151.375 236.875 L221.375 236.875 L221.375 264.875 L141.375 264.875 L141.375 246.875 Z" stroke="none" clip-path="url(#clipPath2)"/>
    </g>
    <g stroke-linecap="butt" transform="matrix(1,0,0,1,178,-79)" fill="rgb(153,153,153)" text-rendering="geometricPrecision" shape-rendering="geometricPrecision" stroke="rgb(153,153,153)" stroke-miterlimit="1.45">
      <path fill="none" d="M151.375 236.875 L221.375 236.875 L221.375 264.875 L141.375 264.875 L141.375 246.875 Z" clip-path="url(#clipPath2)"/>
    </g>
    <g font-size="11px" stroke-linecap="butt" transform="matrix(1,0,0,1,178,-79)" text-rendering="geometricPrecision" font-family="sans-serif" shape-rendering="geometricPrecision" stroke-miterlimit="1.45">
      <text x="161.4912" xml:space="preserve" y="254.6831" clip-path="url(#clipPath2)" stroke="none">system</text>
    </g>
    <g fill="url(#linearGradient15)" text-rendering="geometricPrecision" shape-rendering="geometricPrecision" transform="matrix(1,0,0,1,178,-79)" stroke="url(#linearGradient15)">
      <path d="M-25.5 280.25 L44.5 280.25 L44.5 308.25 L-35.5 308.25 L-35.5 290.25 Z" stroke="none" clip-path="url(#clipPath2)"/>
    </g>
    <g stroke-linecap="butt" transform="matrix(1,0,0,1,178,-79)" fill="rgb(153,153,153)" text-rendering="geometricPrecision" shape-rendering="geometricPrecision" stroke="rgb(153,153,153)" stroke-miterlimit="1.45">
      <path fill="none" d="M-25.5 280.25 L44.5 280.25 L44.5 308.25 L-35.5 308.25 L-35.5 290.25 Z" clip-path="url(#clipPath2)"/>
    </g>
    <g font-size="11px" stroke-linecap="butt" transform="matrix(1,0,0,1,178,-79)" text-rendering="geometricPrecision" font-family="sans-serif" shape-rendering="geometricPrecision" stroke-miterlimit="1.45">
      <text x="-20.2769" xml:space="preserve" y="298.0581" clip-path="url(#clipPath2)" stroke="none">accounts</text>
    </g>
    <g fill="url(#linearGradient16)" text-rendering="geometricPrecision" shape-rendering="geometricPrecision" transform="matrix(1,0,0,1,178,-79)" stroke="url(#linearGradient16)">
      <path d="M-153 323.625 L-83 323.625 L-83 351.625 L-163 351.625 L-163 333.625 Z" stroke="none" clip-path="url(#clipPath2)"/>
    </g>
    <g stroke-linecap="butt" transform="matrix(1,0,0,1,178,-79)" fill="rgb(153,153,153)" text-rendering="geometricPrecision" shape-rendering="geometricPrecision" stroke="rgb(153,153,153)" stroke-miterlimit="1.45">
      <path fill="none" d="M-153 323.625 L-83 323.625 L-83 351.625 L-163 351.625 L-163 333.625 Z" clip-path="url(#clipPath2)"/>
    </g>
    <g font-size="11px" stroke-linecap="butt" transform="matrix(1,0,0,1,178,-79)" text-rendering="geometricPrecision" font-family="sans-serif" shape-rendering="geometricPrecision" stroke-miterlimit="1.45">
      <text x="-153.1587" xml:space="preserve" y="341.4331" clip-path="url(#clipPath2)" stroke="none">before-add</text>
    </g>
    <g fill="url(#linearGradient17)" text-rendering="geometricPrecision" shape-rendering="geometricPrecision" transform="matrix(1,0,0,1,178,-79)" stroke="url(#linearGradient17)">
      <path d="M-64.5625 323.625 L5.4375 323.625 L5.4375 351.625 L-74.5625 351.625 L-74.5625 333.625 Z" stroke="none" clip-path="url(#clipPath2)"/>
    </g>
    <g stroke-linecap="butt" transform="matrix(1,0,0,1,178,-79)" fill="rgb(153,153,153)" text-rendering="geometricPrecision" shape-rendering="geometricPrecision" stroke="rgb(153,153,153)" stroke-miterlimit="1.45">
      <path fill="none" d="M-64.5625 323.625 L5.4375 323.625 L5.4375 351.625 L-74.5625 351.625 L-74.5625 333.625 Z" clip-path="url(#clipPath2)"/>
    </g>
    <g font-size="11px" stroke-linecap="butt" transform="matrix(1,0,0,1,178,-79)" text-rendering="geometricPrecision" font-family="sans-serif" shape-rendering="geometricPrecision" stroke-miterlimit="1.45">
      <text x="-60.0081" xml:space="preserve" y="341.4331" clip-path="url(#clipPath2)" stroke="none">after-add</text>
    </g>
    <g fill="url(#linearGradient18)" text-rendering="geometricPrecision" shape-rendering="geometricPrecision" transform="matrix(1,0,0,1,178,-79)" stroke="url(#linearGradient18)">
      <path d="M23.875 323.625 L93.875 323.625 L93.875 351.625 L13.875 351.625 L13.875 333.625 Z" stroke="none" clip-path="url(#clipPath2)"/>
    </g>
    <g stroke-linecap="butt" transform="matrix(1,0,0,1,178,-79)" fill="rgb(153,153,153)" text-rendering="geometricPrecision" shape-rendering="geometricPrecision" stroke="rgb(153,153,153)" stroke-miterlimit="1.45">
      <path fill="none" d="M23.875 323.625 L93.875 323.625 L93.875 351.625 L13.875 351.625 L13.875 333.625 Z" clip-path="url(#clipPath2)"/>
    </g>
    <g font-size="11px" stroke-linecap="butt" transform="matrix(1,0,0,1,178,-79)" text-rendering="geometricPrecision" font-family="sans-serif" shape-rendering="geometricPrecision" stroke-miterlimit="1.45">
      <text x="42.6333" xml:space="preserve" y="341.4331" clip-path="url(#clipPath2)" stroke="none">files</text>
    </g>
    <g fill="url(#linearGradient19)" text-rendering="geometricPrecision" shape-rendering="geometricPrecision" transform="matrix(1,0,0,1,178,-79)" stroke="url(#linearGradient19)">
      <path d="M112.3125 323.625 L182.3125 323.625 L182.3125 351.625 L102.3125 351.625 L102.3125 333.625 Z" stroke="none" clip-path="url(#clipPath2)"/>
    </g>
    <g stroke-linecap="butt" transform="matrix(1,0,0,1,178,-79)" fill="rgb(153,153,153)" text-rendering="geometricPrecision" shape-rendering="geometricPrecision" stroke="rgb(153,153,153)" stroke-miterlimit="1.45">
      <path fill="none" d="M112.3125 323.625 L182.3125 323.625 L182.3125 351.625 L102.3125 351.625 L102.3125 333.625 Z" clip-path="url(#clipPath2)"/>
    </g>
    <g font-size="11px" stroke-linecap="butt" transform="matrix(1,0,0,1,178,-79)" text-rendering="geometricPrecision" font-family="sans-serif" shape-rendering="geometricPrecision" stroke-miterlimit="1.45">
      <text x="137.0676" xml:space="preserve" y="341.4331" clip-path="url(#clipPath2)" stroke="none">...</text>
    </g>
    <g fill="url(#linearGradient20)" text-rendering="geometricPrecision" shape-rendering="geometricPrecision" transform="matrix(1,0,0,1,178,-79)" stroke="url(#linearGradient20)">
      <path d="M-145.5 367 L-104.5625 367 L-104.5625 395 L-145.5 395 Z" stroke="none" clip-path="url(#clipPath2)"/>
    </g>
    <g stroke-linecap="butt" transform="matrix(1,0,0,1,178,-79)" fill="rgb(153,204,255)" text-rendering="geometricPrecision" shape-rendering="geometricPrecision" stroke="rgb(153,204,255)" stroke-miterlimit="1.45">
      <path fill="none" d="M-145.5 367 L-104.5625 367 L-104.5625 395 L-145.5 395 Z" clip-path="url(#clipPath2)"/>
    </g>
    <g font-size="11px" stroke-linecap="butt" transform="matrix(1,0,0,1,178,-79)" text-rendering="geometricPrecision" font-family="sans-serif" shape-rendering="geometricPrecision" font-style="italic" stroke-miterlimit="1.45">
      <text x="-130.2761" xml:space="preserve" y="384.8081" clip-path="url(#clipPath2)" stroke="none">...</text>
    </g>
    <g stroke-linecap="butt" transform="matrix(1,0,0,1,178,-79)" fill="rgb(153,153,153)" text-rendering="geometricPrecision" shape-rendering="geometricPrecision" stroke="rgb(153,153,153)" stroke-miterlimit="1.45">
      <path fill="none" d="M38.331 133.7237 L54.7375 153.3099" clip-path="url(#clipPath2)"/>
    </g>
    <g stroke-linecap="butt" transform="matrix(1,0,0,1,178,-79)" fill="rgb(153,153,153)" text-rendering="geometricPrecision" shape-rendering="geometricPrecision" stroke="rgb(153,153,153)" stroke-miterlimit="1.45">
      <path d="M57.306 156.3762 L56.7685 146.3907 L54.0954 152.5433 L47.5694 154.0963 Z" stroke="none" clip-path="url(#clipPath2)"/>
      <path fill="none" d="M74.0312 178.1494 L74.0312 189.4932" clip-path="url(#clipPath2)"/>
      <path d="M74.0312 193.4932 L80.0312 185.4932 L74.0312 188.4932 L68.0312 185.4932 Z" clip-path="url(#clipPath2)" stroke="none"/>
      <path fill="none" d="M59.9169 127.9872 L118.8064 148.7861" clip-path="url(#clipPath2)"/>
      <path d="M122.5781 150.1182 L117.0329 141.7965 L117.8635 148.453 L113.0366 153.1115 Z" clip-path="url(#clipPath2)" stroke="none"/>
      <path fill="none" d="M3.1654 133.1933 L-11.6522 147.3737" clip-path="url(#clipPath2)"/>
      <path d="M-14.5421 150.1393 L-4.6139 148.9429 L-10.9297 146.6823 L-12.9107 140.2732 Z" clip-path="url(#clipPath2)" stroke="none"/>
      <path fill="none" d="M22.4375 134.7604 L22.4375 146.1022" clip-path="url(#clipPath2)"/>
      <path d="M22.4375 150.1022 L28.4375 142.1022 L22.4375 145.1022 L16.4375 142.1022 Z" clip-path="url(#clipPath2)" stroke="none"/>
      <path fill="none" d="M-9.6322 130.0953 L-56.6885 152.6116" clip-path="url(#clipPath2)"/>
      <path d="M-60.2967 154.3381 L-50.4905 156.2974 L-55.7864 152.18 L-55.6701 145.4728 Z" clip-path="url(#clipPath2)" stroke="none"/>
      <path fill="none" d="M34.0377 214.933 L-80.0048 236.1285" clip-path="url(#clipPath2)"/>
      <path d="M-83.9375 236.8594 L-74.9758 241.2965 L-79.0217 235.9457 L-77.1686 229.4986 Z" clip-path="url(#clipPath2)" stroke="none"/>
      <path fill="none" d="M51.5898 221.4995 L30.358 234.7443" clip-path="url(#clipPath2)"/>
      <path d="M26.9642 236.8614 L36.9275 237.7178 L31.2064 234.215 L30.5761 227.5365 Z" clip-path="url(#clipPath2)" stroke="none"/>
      <path fill="none" d="M80.1425 221.5206 L85.2291 233.1903" clip-path="url(#clipPath2)"/>
      <path d="M86.8274 236.8571 L89.1311 227.1261 L84.8296 232.2736 L78.1306 231.9209 Z" clip-path="url(#clipPath2)" stroke="none"/>
      <path fill="none" d="M114.0208 218.6371 L175.6487 235.8004" clip-path="url(#clipPath2)"/>
      <path d="M179.5021 236.8736 L173.4051 228.9473 L174.6854 235.5321 L170.1856 240.5073 Z" clip-path="url(#clipPath2)" stroke="none"/>
      <path fill="none" d="M4.5 264.8956 L4.5 276.2321" clip-path="url(#clipPath2)"/>
      <path d="M4.5 280.2321 L10.5 272.2321 L4.5 275.2321 L-1.5 272.2321 Z" clip-path="url(#clipPath2)" stroke="none"/>
      <path fill="none" d="M-35.4783 303.5738 L-117.5812 322.722" clip-path="url(#clipPath2)"/>
      <path d="M-121.4766 323.6305 L-112.3229 327.6566 L-116.6073 322.4948 L-115.0485 315.9702 Z" clip-path="url(#clipPath2)" stroke="none"/>
      <path fill="none" d="M-8.1076 308.2495 L-19.2524 320.6247" clip-path="url(#clipPath2)"/>
      <path d="M-21.9292 323.597 L-12.1171 321.6676 L-18.5832 319.8816 L-21.0341 313.6371 Z" clip-path="url(#clipPath2)" stroke="none"/>
      <path fill="none" d="M-45.1781 351.6245 L-54.3991 363.7848" clip-path="url(#clipPath2)"/>
      <path d="M-56.8159 366.972 L-47.2013 364.2228 L-53.7948 362.9879 L-56.7631 356.9722 Z" clip-path="url(#clipPath2)" stroke="none"/>
      <path fill="none" d="M-20.2907 351.6245 L-7.5001 364.171" clip-path="url(#clipPath2)"/>
      <path d="M-4.6446 366.972 L-6.1541 357.0866 L-8.214 363.4707 L-14.5573 365.6533 Z" clip-path="url(#clipPath2)" stroke="none"/>
      <path fill="none" d="M26.2368 308.2645 L46.6707 321.439" clip-path="url(#clipPath2)"/>
      <path d="M50.0326 323.6065 L46.5602 314.2288 L45.8303 320.8972 L40.0576 324.3143 Z" clip-path="url(#clipPath2)" stroke="none"/>
      <path fill="none" d="M44.5151 305.0168 L109.8412 322.5939" clip-path="url(#clipPath2)"/>
      <path d="M113.7039 323.6332 L107.5376 315.7607 L108.8756 322.3341 L104.4197 327.3486 Z" clip-path="url(#clipPath2)" stroke="none"/>
    </g>
  </g>
</svg>
