<?xml version="1.0" encoding="UTF-8"?><svg xmlns="http://www.w3.org/2000/svg" xmlns:xlink="http://www.w3.org/1999/xlink" fill-opacity="1" color-rendering="auto" color-interpolation="auto" text-rendering="auto" stroke="black" stroke-linecap="square" width="758" stroke-miterlimit="10" shape-rendering="auto" stroke-opacity="1" fill="black" stroke-dasharray="none" font-weight="normal" stroke-width="1" height="283" font-family="'Dialog'" font-style="normal" stroke-linejoin="miter" font-size="12px" stroke-dashoffset="0" image-rendering="auto">
  <!--Generated by ySVG 2.5-->
  <defs id="genericDefs"/>
  <g>
    <defs id="defs1">
      <linearGradient x1="456.6544" gradientUnits="userSpaceOnUse" x2="491.4981" y1="392.012" y2="420.012" id="linearGradient1" spreadMethod="reflect">
        <stop stop-opacity="1" stop-color="rgb(232,238,247)" offset="0%"/>
        <stop stop-opacity="1" stop-color="rgb(204,153,255)" offset="100%"/>
      </linearGradient>
      <linearGradient x1="296.9825" gradientUnits="userSpaceOnUse" x2="385.5971" y1="392.012" y2="420.012" id="linearGradient2" spreadMethod="reflect">
        <stop stop-opacity="1" stop-color="rgb(232,238,247)" offset="0%"/>
        <stop stop-opacity="1" stop-color="rgb(204,153,255)" offset="100%"/>
      </linearGradient>
      <linearGradient x1="453.6075" gradientUnits="userSpaceOnUse" x2="494.545" y1="348.637" y2="376.637" id="linearGradient3" spreadMethod="reflect">
        <stop stop-opacity="1" stop-color="rgb(232,238,247)" offset="0%"/>
        <stop stop-opacity="1" stop-color="rgb(255,255,153)" offset="100%"/>
      </linearGradient>
      <linearGradient x1="231.01" gradientUnits="userSpaceOnUse" x2="311.01" y1="305.262" y2="333.262" id="linearGradient4" spreadMethod="reflect">
        <stop stop-opacity="1" stop-color="rgb(232,238,247)" offset="0%"/>
        <stop stop-opacity="1" stop-color="rgb(0,204,255)" offset="100%"/>
      </linearGradient>
      <linearGradient x1="510.6348" gradientUnits="userSpaceOnUse" x2="590.6348" y1="437.947" y2="465.947" id="linearGradient5" spreadMethod="reflect">
        <stop stop-opacity="1" stop-color="rgb(232,238,247)" offset="0%"/>
        <stop stop-opacity="1" stop-color="rgb(0,204,255)" offset="100%"/>
      </linearGradient>
      <linearGradient x1="411.4981" gradientUnits="userSpaceOnUse" x2="491.4981" y1="483.882" y2="511.882" id="linearGradient6" spreadMethod="reflect">
        <stop stop-opacity="1" stop-color="white" offset="0%"/>
        <stop stop-opacity="1" stop-color="rgb(204,153,255)" offset="100%"/>
      </linearGradient>
      <linearGradient x1="510.6348" gradientUnits="userSpaceOnUse" x2="590.6348" y1="483.882" y2="511.882" id="linearGradient7" spreadMethod="reflect">
        <stop stop-opacity="1" stop-color="rgb(232,238,247)" offset="0%"/>
        <stop stop-opacity="1" stop-color="rgb(0,204,255)" offset="100%"/>
      </linearGradient>
      <linearGradient x1="367.4384" gradientUnits="userSpaceOnUse" x2="432.4969" y1="529.817" y2="557.817" id="linearGradient8" spreadMethod="reflect">
        <stop stop-opacity="1" stop-color="rgb(232,238,247)" offset="0%"/>
        <stop stop-opacity="1" stop-color="rgb(255,255,153)" offset="100%"/>
      </linearGradient>
      <linearGradient x1="445.972" gradientUnits="userSpaceOnUse" x2="597.338" y1="529.817" y2="557.817" id="linearGradient9" spreadMethod="reflect">
        <stop stop-opacity="1" stop-color="rgb(232,238,247)" offset="0%"/>
        <stop stop-opacity="1" stop-color="rgb(255,255,153)" offset="100%"/>
      </linearGradient>
      <linearGradient x1="-47.4416" gradientUnits="userSpaceOnUse" x2="118.1228" y1="392.012" y2="420.012" id="linearGradient10" spreadMethod="reflect">
        <stop stop-opacity="1" stop-color="rgb(232,238,247)" offset="0%"/>
        <stop stop-opacity="1" stop-color="rgb(0,204,255)" offset="100%"/>
      </linearGradient>
      <linearGradient x1="-47.4416" gradientUnits="userSpaceOnUse" x2="118.1228" y1="348.637" y2="376.637" id="linearGradient11" spreadMethod="reflect">
        <stop stop-opacity="1" stop-color="rgb(232,238,247)" offset="0%"/>
        <stop stop-opacity="1" stop-color="rgb(255,255,153)" offset="100%"/>
      </linearGradient>
      <linearGradient x1="124.7705" gradientUnits="userSpaceOnUse" x2="290.3348" y1="392.012" y2="420.012" id="linearGradient12" spreadMethod="reflect">
        <stop stop-opacity="1" stop-color="rgb(232,238,247)" offset="0%"/>
        <stop stop-opacity="1" stop-color="rgb(0,204,255)" offset="100%"/>
      </linearGradient>
      <linearGradient x1="124.7705" gradientUnits="userSpaceOnUse" x2="290.3348" y1="348.637" y2="376.637" id="linearGradient13" spreadMethod="reflect">
        <stop stop-opacity="1" stop-color="rgb(232,238,247)" offset="0%"/>
        <stop stop-opacity="1" stop-color="rgb(255,255,153)" offset="100%"/>
      </linearGradient>
      <linearGradient x1="-43.0869" gradientUnits="userSpaceOnUse" x2="21.9716" y1="439.0218" y2="467.0218" id="linearGradient14" spreadMethod="reflect">
        <stop stop-opacity="1" stop-color="rgb(232,238,247)" offset="0%"/>
        <stop stop-opacity="1" stop-color="rgb(255,255,153)" offset="100%"/>
      </linearGradient>
      <linearGradient x1="134.2739" gradientUnits="userSpaceOnUse" x2="199.3325" y1="437.947" y2="465.947" id="linearGradient15" spreadMethod="reflect">
        <stop stop-opacity="1" stop-color="rgb(232,238,247)" offset="0%"/>
        <stop stop-opacity="1" stop-color="rgb(255,255,153)" offset="100%"/>
      </linearGradient>
      <linearGradient x1="296.9825" gradientUnits="userSpaceOnUse" x2="385.5971" y1="348.637" y2="376.637" id="linearGradient16" spreadMethod="reflect">
        <stop stop-opacity="1" stop-color="rgb(232,238,247)" offset="0%"/>
        <stop stop-opacity="1" stop-color="rgb(255,255,153)" offset="100%"/>
      </linearGradient>
      <linearGradient x1="216.9825" gradientUnits="userSpaceOnUse" x2="296.9825" y1="437.947" y2="465.947" id="linearGradient17" spreadMethod="reflect">
        <stop stop-opacity="1" stop-color="rgb(232,238,247)" offset="0%"/>
        <stop stop-opacity="1" stop-color="rgb(255,255,153)" offset="100%"/>
      </linearGradient>
      <linearGradient x1="38.1228" gradientUnits="userSpaceOnUse" x2="118.1228" y1="439.0218" y2="467.0218" id="linearGradient18" spreadMethod="reflect">
        <stop stop-opacity="1" stop-color="rgb(232,238,247)" offset="0%"/>
        <stop stop-opacity="1" stop-color="rgb(255,255,153)" offset="100%"/>
      </linearGradient>
      <linearGradient x1="554.8204" gradientUnits="userSpaceOnUse" x2="634.8204" y1="392.012" y2="420.012" id="linearGradient19" spreadMethod="reflect">
        <stop stop-opacity="1" stop-color="rgb(232,238,247)" offset="0%"/>
        <stop stop-opacity="1" stop-color="rgb(0,204,255)" offset="100%"/>
      </linearGradient>
      <linearGradient x1="599.0059" gradientUnits="userSpaceOnUse" x2="679.0059" y1="435.387" y2="463.387" id="linearGradient20" spreadMethod="reflect">
        <stop stop-opacity="1" stop-color="rgb(232,238,247)" offset="0%"/>
        <stop stop-opacity="1" stop-color="rgb(0,204,255)" offset="100%"/>
      </linearGradient>
      <clipPath clipPathUnits="userSpaceOnUse" id="clipPath1">
        <path d="M0 0 L758 0 L758 283 L0 283 L0 0 Z"/>
      </clipPath>
      <clipPath clipPathUnits="userSpaceOnUse" id="clipPath2">
        <path d="M-63 290 L695 290 L695 573 L-63 573 L-63 290 Z"/>
      </clipPath>
    </defs>
    <g fill="white" text-rendering="geometricPrecision" shape-rendering="geometricPrecision" transform="translate(63,-290)" stroke="white">
      <rect x="-63" width="758" height="283" y="290" clip-path="url(#clipPath2)" stroke="none"/>
    </g>
    <g fill="url(#linearGradient1)" text-rendering="geometricPrecision" shape-rendering="geometricPrecision" transform="matrix(1,0,0,1,63,-290)" stroke="url(#linearGradient1)">
      <path d="M466.6544 392.012 L491.4981 392.012 L491.4981 420.012 L456.6544 420.012 L456.6544 402.012 Z" stroke="none" clip-path="url(#clipPath2)"/>
    </g>
    <g stroke-linecap="butt" transform="matrix(1,0,0,1,63,-290)" fill="rgb(153,153,153)" text-rendering="geometricPrecision" shape-rendering="geometricPrecision" stroke="rgb(153,153,153)" stroke-miterlimit="1.45">
      <path fill="none" d="M466.6544 392.012 L491.4981 392.012 L491.4981 420.012 L456.6544 420.012 L456.6544 402.012 Z" clip-path="url(#clipPath2)"/>
    </g>
    <g font-size="11px" stroke-linecap="butt" transform="matrix(1,0,0,1,63,-290)" text-rendering="geometricPrecision" font-family="sans-serif" shape-rendering="geometricPrecision" stroke-miterlimit="1.45">
      <text x="468.8314" xml:space="preserve" y="409.8201" clip-path="url(#clipPath2)" stroke="none">...</text>
    </g>
    <g fill="url(#linearGradient2)" text-rendering="geometricPrecision" shape-rendering="geometricPrecision" transform="matrix(1,0,0,1,63,-290)" stroke="url(#linearGradient2)">
      <path d="M306.9825 392.012 L385.5971 392.012 L385.5971 420.012 L296.9825 420.012 L296.9825 402.012 Z" stroke="none" clip-path="url(#clipPath2)"/>
    </g>
    <g stroke-linecap="butt" transform="matrix(1,0,0,1,63,-290)" fill="rgb(153,153,153)" text-rendering="geometricPrecision" shape-rendering="geometricPrecision" stroke="rgb(153,153,153)" stroke-miterlimit="1.45">
      <path fill="none" d="M306.9825 392.012 L385.5971 392.012 L385.5971 420.012 L296.9825 420.012 L296.9825 402.012 Z" clip-path="url(#clipPath2)"/>
    </g>
    <g font-size="11px" stroke-linecap="butt" transform="matrix(1,0,0,1,63,-290)" text-rendering="geometricPrecision" font-family="sans-serif" shape-rendering="geometricPrecision" stroke-miterlimit="1.45">
      <text x="314.9419" xml:space="preserve" y="409.8201" clip-path="url(#clipPath2)" stroke="none">&lt;image&gt;</text>
    </g>
    <g fill="url(#linearGradient3)" text-rendering="geometricPrecision" shape-rendering="geometricPrecision" transform="matrix(1,0,0,1,63,-290)" stroke="url(#linearGradient3)">
      <path d="M453.6075 348.637 L494.545 348.637 L494.545 376.637 L453.6075 376.637 Z" stroke="none" clip-path="url(#clipPath2)"/>
    </g>
    <g stroke-linecap="butt" transform="matrix(1,0,0,1,63,-290)" fill="rgb(153,204,255)" text-rendering="geometricPrecision" shape-rendering="geometricPrecision" stroke="rgb(153,204,255)" stroke-miterlimit="1.45">
      <path fill="none" d="M453.6075 348.637 L494.545 348.637 L494.545 376.637 L453.6075 376.637 Z" clip-path="url(#clipPath2)"/>
    </g>
    <g font-size="11px" stroke-linecap="butt" transform="matrix(1,0,0,1,63,-290)" text-rendering="geometricPrecision" font-family="sans-serif" shape-rendering="geometricPrecision" font-style="italic" stroke-miterlimit="1.45">
      <text x="468.8314" xml:space="preserve" y="366.4451" clip-path="url(#clipPath2)" stroke="none">...</text>
    </g>
    <g fill="url(#linearGradient4)" text-rendering="geometricPrecision" shape-rendering="geometricPrecision" transform="matrix(1,0,0,1,63,-290)" stroke="url(#linearGradient4)">
      <path d="M241.01 305.262 L311.01 305.262 L311.01 333.262 L231.01 333.262 L231.01 315.262 Z" stroke="none" clip-path="url(#clipPath2)"/>
    </g>
    <g stroke-linecap="butt" transform="matrix(1,0,0,1,63,-290)" fill="rgb(153,153,153)" text-rendering="geometricPrecision" shape-rendering="geometricPrecision" stroke="rgb(153,153,153)" stroke-miterlimit="1.45">
      <path fill="none" d="M241.01 305.262 L311.01 305.262 L311.01 333.262 L231.01 333.262 L231.01 315.262 Z" clip-path="url(#clipPath2)"/>
    </g>
    <g font-size="11px" stroke-linecap="butt" transform="matrix(1,0,0,1,63,-290)" text-rendering="geometricPrecision" font-family="sans-serif" shape-rendering="geometricPrecision" stroke-miterlimit="1.45">
      <text x="250.9624" xml:space="preserve" y="323.0701" clip-path="url(#clipPath2)" stroke="none">backup</text>
    </g>
    <g fill="url(#linearGradient5)" text-rendering="geometricPrecision" shape-rendering="geometricPrecision" transform="matrix(1,0,0,1,63,-290)" stroke="url(#linearGradient5)">
      <path d="M520.6348 437.947 L590.6348 437.947 L590.6348 465.947 L510.6348 465.947 L510.6348 447.947 Z" stroke="none" clip-path="url(#clipPath2)"/>
    </g>
    <g stroke-linecap="butt" transform="matrix(1,0,0,1,63,-290)" fill="rgb(153,153,153)" text-rendering="geometricPrecision" shape-rendering="geometricPrecision" stroke="rgb(153,153,153)" stroke-miterlimit="1.45">
      <path fill="none" d="M520.6348 437.947 L590.6348 437.947 L590.6348 465.947 L510.6348 465.947 L510.6348 447.947 Z" clip-path="url(#clipPath2)"/>
    </g>
    <g font-size="11px" stroke-linecap="butt" transform="matrix(1,0,0,1,63,-290)" text-rendering="geometricPrecision" font-family="sans-serif" shape-rendering="geometricPrecision" stroke-miterlimit="1.45">
      <text x="528.6966" xml:space="preserve" y="455.7551" clip-path="url(#clipPath2)" stroke="none">desktop</text>
    </g>
    <g fill="url(#linearGradient6)" text-rendering="geometricPrecision" shape-rendering="geometricPrecision" transform="matrix(1,0,0,1,63,-290)" stroke="url(#linearGradient6)">
      <path d="M421.4981 483.882 L491.4981 483.882 L491.4981 511.882 L411.4981 511.882 L411.4981 493.882 Z" stroke="none" clip-path="url(#clipPath2)"/>
    </g>
    <g stroke-linecap="butt" transform="matrix(1,0,0,1,63,-290)" fill="rgb(0,204,255)" text-rendering="geometricPrecision" shape-rendering="geometricPrecision" stroke="rgb(0,204,255)" stroke-width="2" stroke-miterlimit="1.45">
      <path fill="none" d="M421.4981 483.882 L491.4981 483.882 L491.4981 511.882 L411.4981 511.882 L411.4981 493.882 Z" clip-path="url(#clipPath2)"/>
    </g>
    <g font-size="11px" stroke-linecap="butt" transform="matrix(1,0,0,1,63,-290)" text-rendering="geometricPrecision" font-family="sans-serif" shape-rendering="geometricPrecision" stroke-miterlimit="1.45">
      <text x="434.367" xml:space="preserve" y="501.6901" clip-path="url(#clipPath2)" stroke="none">image</text>
    </g>
    <g fill="url(#linearGradient7)" text-rendering="geometricPrecision" shape-rendering="geometricPrecision" transform="matrix(1,0,0,1,63,-290)" stroke="url(#linearGradient7)">
      <path d="M520.6348 483.882 L590.6348 483.882 L590.6348 511.882 L510.6348 511.882 L510.6348 493.882 Z" stroke="none" clip-path="url(#clipPath2)"/>
    </g>
    <g stroke-linecap="butt" transform="matrix(1,0,0,1,63,-290)" fill="rgb(153,153,153)" text-rendering="geometricPrecision" shape-rendering="geometricPrecision" stroke="rgb(153,153,153)" stroke-miterlimit="1.45">
      <path fill="none" d="M520.6348 483.882 L590.6348 483.882 L590.6348 511.882 L510.6348 511.882 L510.6348 493.882 Z" clip-path="url(#clipPath2)"/>
    </g>
    <g font-size="11px" stroke-linecap="butt" transform="matrix(1,0,0,1,63,-290)" text-rendering="geometricPrecision" font-family="sans-serif" shape-rendering="geometricPrecision" stroke-miterlimit="1.45">
      <text x="539.4871" xml:space="preserve" y="501.6901" clip-path="url(#clipPath2)" stroke="none">root</text>
    </g>
    <g fill="url(#linearGradient8)" text-rendering="geometricPrecision" shape-rendering="geometricPrecision" transform="matrix(1,0,0,1,63,-290)" stroke="url(#linearGradient8)">
      <path d="M367.4384 529.817 L432.4969 529.817 L432.4969 557.817 L367.4384 557.817 Z" stroke="none" clip-path="url(#clipPath2)"/>
    </g>
    <g stroke-linecap="butt" transform="matrix(1,0,0,1,63,-290)" fill="rgb(153,204,255)" text-rendering="geometricPrecision" shape-rendering="geometricPrecision" stroke="rgb(153,204,255)" stroke-miterlimit="1.45">
      <path fill="none" d="M367.4384 529.817 L432.4969 529.817 L432.4969 557.817 L367.4384 557.817 Z" clip-path="url(#clipPath2)"/>
    </g>
    <g font-size="11px" stroke-linecap="butt" transform="matrix(1,0,0,1,63,-290)" text-rendering="geometricPrecision" font-family="sans-serif" shape-rendering="geometricPrecision" font-style="italic" stroke-miterlimit="1.45">
      <text x="371.568" xml:space="preserve" y="547.6251" clip-path="url(#clipPath2)" stroke="none">gislab.img</text>
    </g>
    <g fill="url(#linearGradient9)" text-rendering="geometricPrecision" shape-rendering="geometricPrecision" transform="matrix(1,0,0,1,63,-290)" stroke="url(#linearGradient9)">
      <path d="M445.972 529.817 L597.338 529.817 L597.338 557.817 L445.972 557.817 Z" stroke="none" clip-path="url(#clipPath2)"/>
    </g>
    <g stroke-linecap="butt" transform="matrix(1,0,0,1,63,-290)" fill="rgb(153,204,255)" text-rendering="geometricPrecision" shape-rendering="geometricPrecision" stroke="rgb(153,204,255)" stroke-miterlimit="1.45">
      <path fill="none" d="M445.972 529.817 L597.338 529.817 L597.338 557.817 L445.972 557.817 Z" clip-path="url(#clipPath2)"/>
    </g>
    <g font-size="11px" stroke-linecap="butt" transform="matrix(1,0,0,1,63,-290)" text-rendering="geometricPrecision" font-family="sans-serif" shape-rendering="geometricPrecision" font-style="italic" stroke-miterlimit="1.45">
      <text x="448.9438" xml:space="preserve" y="547.6251" clip-path="url(#clipPath2)" stroke="none">gislab-desktop.buildstamp</text>
    </g>
    <g fill="url(#linearGradient10)" text-rendering="geometricPrecision" shape-rendering="geometricPrecision" transform="matrix(1,0,0,1,63,-290)" stroke="url(#linearGradient10)">
      <path d="M-37.4416 392.012 L118.1228 392.012 L118.1228 420.012 L-47.4416 420.012 L-47.4416 402.012 Z" stroke="none" clip-path="url(#clipPath2)"/>
    </g>
    <g stroke-linecap="butt" transform="matrix(1,0,0,1,63,-290)" fill="rgb(153,153,153)" text-rendering="geometricPrecision" shape-rendering="geometricPrecision" stroke="rgb(153,153,153)" stroke-miterlimit="1.45">
      <path fill="none" d="M-37.4416 392.012 L118.1228 392.012 L118.1228 420.012 L-47.4416 420.012 L-47.4416 402.012 Z" clip-path="url(#clipPath2)"/>
    </g>
    <g font-size="11px" stroke-linecap="butt" transform="matrix(1,0,0,1,63,-290)" text-rendering="geometricPrecision" font-family="sans-serif" shape-rendering="geometricPrecision" stroke-miterlimit="1.45">
      <text x="-28.656" xml:space="preserve" y="409.8201" clip-path="url(#clipPath2)" stroke="none">image-course-beginner</text>
    </g>
    <g fill="url(#linearGradient11)" text-rendering="geometricPrecision" shape-rendering="geometricPrecision" transform="matrix(1,0,0,1,63,-290)" stroke="url(#linearGradient11)">
      <path d="M-47.4416 348.637 L118.1228 348.637 L118.1228 376.637 L-47.4416 376.637 Z" stroke="none" clip-path="url(#clipPath2)"/>
    </g>
    <g stroke-linecap="butt" transform="matrix(1,0,0,1,63,-290)" fill="rgb(153,204,255)" text-rendering="geometricPrecision" shape-rendering="geometricPrecision" stroke="rgb(153,204,255)" stroke-miterlimit="1.45">
      <path fill="none" d="M-47.4416 348.637 L118.1228 348.637 L118.1228 376.637 L-47.4416 376.637 Z" clip-path="url(#clipPath2)"/>
    </g>
    <g font-size="11px" stroke-linecap="butt" transform="matrix(1,0,0,1,63,-290)" text-rendering="geometricPrecision" font-family="sans-serif" shape-rendering="geometricPrecision" font-style="italic" stroke-miterlimit="1.45">
      <text x="-43.8347" xml:space="preserve" y="366.4451" clip-path="url(#clipPath2)" stroke="none">root-course-beginner.tar.bz2</text>
    </g>
    <g fill="url(#linearGradient12)" text-rendering="geometricPrecision" shape-rendering="geometricPrecision" transform="matrix(1,0,0,1,63,-290)" stroke="url(#linearGradient12)">
      <path d="M134.7705 392.012 L290.3348 392.012 L290.3348 420.012 L124.7705 420.012 L124.7705 402.012 Z" stroke="none" clip-path="url(#clipPath2)"/>
    </g>
    <g stroke-linecap="butt" transform="matrix(1,0,0,1,63,-290)" fill="rgb(153,153,153)" text-rendering="geometricPrecision" shape-rendering="geometricPrecision" stroke="rgb(153,153,153)" stroke-miterlimit="1.45">
      <path fill="none" d="M134.7705 392.012 L290.3348 392.012 L290.3348 420.012 L124.7705 420.012 L124.7705 402.012 Z" clip-path="url(#clipPath2)"/>
    </g>
    <g font-size="11px" stroke-linecap="butt" transform="matrix(1,0,0,1,63,-290)" text-rendering="geometricPrecision" font-family="sans-serif" shape-rendering="geometricPrecision" stroke-miterlimit="1.45">
      <text x="141.1955" xml:space="preserve" y="409.8201" clip-path="url(#clipPath2)" stroke="none">image-course-advanced</text>
    </g>
    <g fill="url(#linearGradient13)" text-rendering="geometricPrecision" shape-rendering="geometricPrecision" transform="matrix(1,0,0,1,63,-290)" stroke="url(#linearGradient13)">
      <path d="M124.7705 348.637 L290.3348 348.637 L290.3348 376.637 L124.7705 376.637 Z" stroke="none" clip-path="url(#clipPath2)"/>
    </g>
    <g stroke-linecap="butt" transform="matrix(1,0,0,1,63,-290)" fill="rgb(153,204,255)" text-rendering="geometricPrecision" shape-rendering="geometricPrecision" stroke="rgb(153,204,255)" stroke-miterlimit="1.45">
      <path fill="none" d="M124.7705 348.637 L290.3348 348.637 L290.3348 376.637 L124.7705 376.637 Z" clip-path="url(#clipPath2)"/>
    </g>
    <g font-size="11px" stroke-linecap="butt" transform="matrix(1,0,0,1,63,-290)" text-rendering="geometricPrecision" font-family="sans-serif" shape-rendering="geometricPrecision" font-style="italic" stroke-miterlimit="1.45">
      <text x="126.0167" xml:space="preserve" y="366.4451" clip-path="url(#clipPath2)" stroke="none">root-course-advanced.tar.bz2</text>
    </g>
    <g fill="url(#linearGradient14)" text-rendering="geometricPrecision" shape-rendering="geometricPrecision" transform="matrix(1,0,0,1,63,-290)" stroke="url(#linearGradient14)">
      <path d="M-43.0869 439.0218 L21.9716 439.0218 L21.9716 467.0218 L-43.0869 467.0218 Z" stroke="none" clip-path="url(#clipPath2)"/>
    </g>
    <g stroke-linecap="butt" transform="matrix(1,0,0,1,63,-290)" fill="rgb(153,204,255)" text-rendering="geometricPrecision" shape-rendering="geometricPrecision" stroke="rgb(153,204,255)" stroke-miterlimit="1.45">
      <path fill="none" d="M-43.0869 439.0218 L21.9716 439.0218 L21.9716 467.0218 L-43.0869 467.0218 Z" clip-path="url(#clipPath2)"/>
    </g>
    <g font-size="11px" stroke-linecap="butt" transform="matrix(1,0,0,1,63,-290)" text-rendering="geometricPrecision" font-family="sans-serif" shape-rendering="geometricPrecision" font-style="italic" stroke-miterlimit="1.45">
      <text x="-38.9573" xml:space="preserve" y="456.8299" clip-path="url(#clipPath2)" stroke="none">gislab.img</text>
    </g>
    <g fill="url(#linearGradient15)" text-rendering="geometricPrecision" shape-rendering="geometricPrecision" transform="matrix(1,0,0,1,63,-290)" stroke="url(#linearGradient15)">
      <path d="M134.2739 437.947 L199.3325 437.947 L199.3325 465.947 L134.2739 465.947 Z" stroke="none" clip-path="url(#clipPath2)"/>
    </g>
    <g stroke-linecap="butt" transform="matrix(1,0,0,1,63,-290)" fill="rgb(153,204,255)" text-rendering="geometricPrecision" shape-rendering="geometricPrecision" stroke="rgb(153,204,255)" stroke-miterlimit="1.45">
      <path fill="none" d="M134.2739 437.947 L199.3325 437.947 L199.3325 465.947 L134.2739 465.947 Z" clip-path="url(#clipPath2)"/>
    </g>
    <g font-size="11px" stroke-linecap="butt" transform="matrix(1,0,0,1,63,-290)" text-rendering="geometricPrecision" font-family="sans-serif" shape-rendering="geometricPrecision" font-style="italic" stroke-miterlimit="1.45">
      <text x="138.4035" xml:space="preserve" y="455.7551" clip-path="url(#clipPath2)" stroke="none">gislab.img</text>
    </g>
    <g fill="url(#linearGradient16)" text-rendering="geometricPrecision" shape-rendering="geometricPrecision" transform="matrix(1,0,0,1,63,-290)" stroke="url(#linearGradient16)">
      <path d="M296.9825 348.637 L385.5971 348.637 L385.5971 376.637 L296.9825 376.637 Z" stroke="none" clip-path="url(#clipPath2)"/>
    </g>
    <g stroke-linecap="butt" transform="matrix(1,0,0,1,63,-290)" fill="rgb(153,204,255)" text-rendering="geometricPrecision" shape-rendering="geometricPrecision" stroke="rgb(153,204,255)" stroke-miterlimit="1.45">
      <path fill="none" d="M296.9825 348.637 L385.5971 348.637 L385.5971 376.637 L296.9825 376.637 Z" clip-path="url(#clipPath2)"/>
    </g>
    <g font-size="11px" stroke-linecap="butt" transform="matrix(1,0,0,1,63,-290)" text-rendering="geometricPrecision" font-family="sans-serif" shape-rendering="geometricPrecision" font-style="italic" stroke-miterlimit="1.45">
      <text x="299.7632" xml:space="preserve" y="366.4451" clip-path="url(#clipPath2)" stroke="none">&lt;root&gt;.tar.bz2</text>
    </g>
    <g fill="url(#linearGradient17)" text-rendering="geometricPrecision" shape-rendering="geometricPrecision" transform="matrix(1,0,0,1,63,-290)" stroke="url(#linearGradient17)">
      <path d="M216.9825 437.947 L296.9825 437.947 L296.9825 465.947 L216.9825 465.947 Z" stroke="none" clip-path="url(#clipPath2)"/>
    </g>
    <g stroke-linecap="butt" transform="matrix(1,0,0,1,63,-290)" fill="rgb(153,204,255)" text-rendering="geometricPrecision" shape-rendering="geometricPrecision" stroke="rgb(153,204,255)" stroke-miterlimit="1.45">
      <path fill="none" d="M216.9825 437.947 L296.9825 437.947 L296.9825 465.947 L216.9825 465.947 Z" clip-path="url(#clipPath2)"/>
    </g>
    <g font-size="11px" stroke-linecap="butt" transform="matrix(1,0,0,1,63,-290)" text-rendering="geometricPrecision" font-family="sans-serif" shape-rendering="geometricPrecision" font-style="italic" stroke-miterlimit="1.45">
      <text x="221.7186" xml:space="preserve" y="455.7551" clip-path="url(#clipPath2)" stroke="none">*.buildstamp</text>
    </g>
    <g fill="url(#linearGradient18)" text-rendering="geometricPrecision" shape-rendering="geometricPrecision" transform="matrix(1,0,0,1,63,-290)" stroke="url(#linearGradient18)">
      <path d="M38.1228 439.0218 L118.1228 439.0218 L118.1228 467.0218 L38.1228 467.0218 Z" stroke="none" clip-path="url(#clipPath2)"/>
    </g>
    <g stroke-linecap="butt" transform="matrix(1,0,0,1,63,-290)" fill="rgb(153,204,255)" text-rendering="geometricPrecision" shape-rendering="geometricPrecision" stroke="rgb(153,204,255)" stroke-miterlimit="1.45">
      <path fill="none" d="M38.1228 439.0218 L118.1228 439.0218 L118.1228 467.0218 L38.1228 467.0218 Z" clip-path="url(#clipPath2)"/>
    </g>
    <g font-size="11px" stroke-linecap="butt" transform="matrix(1,0,0,1,63,-290)" text-rendering="geometricPrecision" font-family="sans-serif" shape-rendering="geometricPrecision" font-style="italic" stroke-miterlimit="1.45">
      <text x="42.8589" xml:space="preserve" y="456.8299" clip-path="url(#clipPath2)" stroke="none">*.buildstamp</text>
    </g>
    <g fill="url(#linearGradient19)" text-rendering="geometricPrecision" shape-rendering="geometricPrecision" transform="matrix(1,0,0,1,63,-290)" stroke="url(#linearGradient19)">
      <path d="M564.8204 392.012 L634.8204 392.012 L634.8204 420.012 L554.8204 420.012 L554.8204 402.012 Z" stroke="none" clip-path="url(#clipPath2)"/>
    </g>
    <g stroke-linecap="butt" transform="matrix(1,0,0,1,63,-290)" fill="rgb(153,153,153)" text-rendering="geometricPrecision" shape-rendering="geometricPrecision" stroke="rgb(153,153,153)" stroke-miterlimit="1.45">
      <path fill="none" d="M564.8204 392.012 L634.8204 392.012 L634.8204 420.012 L554.8204 420.012 L554.8204 402.012 Z" clip-path="url(#clipPath2)"/>
    </g>
    <g font-size="11px" stroke-linecap="butt" transform="matrix(1,0,0,1,63,-290)" text-rendering="geometricPrecision" font-family="sans-serif" shape-rendering="geometricPrecision" stroke-miterlimit="1.45">
      <text x="576.8487" xml:space="preserve" y="409.8201" clip-path="url(#clipPath2)" stroke="none">clients</text>
    </g>
    <g fill="url(#linearGradient20)" text-rendering="geometricPrecision" shape-rendering="geometricPrecision" transform="matrix(1,0,0,1,63,-290)" stroke="url(#linearGradient20)">
      <path d="M609.0059 435.387 L679.0059 435.387 L679.0059 463.387 L599.0059 463.387 L599.0059 445.387 Z" stroke="none" clip-path="url(#clipPath2)"/>
    </g>
    <g stroke-linecap="butt" transform="matrix(1,0,0,1,63,-290)" fill="rgb(153,153,153)" text-rendering="geometricPrecision" shape-rendering="geometricPrecision" stroke="rgb(153,153,153)" stroke-miterlimit="1.45">
      <path fill="none" d="M609.0059 435.387 L679.0059 435.387 L679.0059 463.387 L599.0059 463.387 L599.0059 445.387 Z" clip-path="url(#clipPath2)"/>
    </g>
    <g font-size="11px" stroke-linecap="butt" transform="matrix(1,0,0,1,63,-290)" text-rendering="geometricPrecision" font-family="sans-serif" shape-rendering="geometricPrecision" stroke-miterlimit="1.45">
      <text x="627.6326" xml:space="preserve" y="453.1951" clip-path="url(#clipPath2)" stroke="none">web</text>
    </g>
    <g stroke-linecap="round" transform="matrix(1,0,0,1,63,-290)" stroke-dashoffset="2" fill="rgb(153,153,153)" text-rendering="geometricPrecision" shape-rendering="geometricPrecision" stroke-dasharray="0,4" stroke="rgb(153,153,153)" stroke-miterlimit="1.45">
      <path fill="none" d="M474.0762 376.6576 L474.0762 387.9941" clip-path="url(#clipPath2)"/>
    </g>
    <g stroke-linecap="round" transform="matrix(1,0,0,1,63,-290)" fill-opacity="0" stroke-dashoffset="2" fill="rgb(0,0,0)" text-rendering="geometricPrecision" shape-rendering="geometricPrecision" stroke-dasharray="0,4" stroke="rgb(0,0,0)" stroke-opacity="0" stroke-miterlimit="1.45">
      <path d="M474.0762 395.9941 C471.8671 395.9941 470.0762 394.2032 470.0762 391.9941 C470.0762 389.785 471.8671 387.9941 474.0762 387.9941 C476.2854 387.9941 478.0762 389.785 478.0762 391.9941 C478.0762 394.2032 476.2854 395.9941 474.0762 395.9941 Z" stroke="none" clip-path="url(#clipPath2)"/>
    </g>
    <g stroke-linecap="butt" transform="matrix(1,0,0,1,63,-290)" fill="rgb(153,153,153)" text-rendering="geometricPrecision" shape-rendering="geometricPrecision" stroke="rgb(153,153,153)" stroke-miterlimit="1.45">
      <path fill="none" d="M474.0762 395.9941 C471.8671 395.9941 470.0762 394.2032 470.0762 391.9941 C470.0762 389.785 471.8671 387.9941 474.0762 387.9941 C476.2854 387.9941 478.0762 389.785 478.0762 391.9941 C478.0762 394.2032 476.2854 395.9941 474.0762 395.9941 Z" clip-path="url(#clipPath2)"/>
      <path fill="none" d="M310.9936 327.8025 L449.6597 357.4216" clip-path="url(#clipPath2)"/>
      <path d="M453.5715 358.2571 L447.0013 350.7184 L448.6818 357.2127 L444.4946 362.4537 Z" clip-path="url(#clipPath2)" stroke="none"/>
      <path fill="none" d="M520.4049 465.954 L485.3751 482.1851" clip-path="url(#clipPath2)"/>
      <path d="M481.7458 483.8667 L491.5269 485.9474 L486.2825 481.7646 L486.482 475.0594 Z" clip-path="url(#clipPath2)" stroke="none"/>
    </g>
    <g stroke-linecap="round" transform="matrix(1,0,0,1,63,-290)" stroke-dashoffset="2" fill="red" text-rendering="geometricPrecision" shape-rendering="geometricPrecision" stroke-dasharray="0,4" stroke="red" stroke-miterlimit="1.45">
      <path fill="none" d="M419.4626 485.8666 L330.3092 422.3378" clip-path="url(#clipPath2)"/>
      <path d="M327.0516 420.0165 L330.0848 429.5454 L331.1236 422.9181 L337.0487 419.7727 Z" clip-path="url(#clipPath2)" stroke="none"/>
      <rect x="362.6641" y="443.5446" clip-path="url(#clipPath2)" fill="white" width="18.3945" height="16.8047" stroke="none"/>
    </g>
    <g stroke-linecap="butt" font-size="11px" transform="matrix(1,0,0,1,63,-290)" fill="red" text-rendering="geometricPrecision" font-family="sans-serif" shape-rendering="geometricPrecision" stroke="red" font-weight="bold" stroke-miterlimit="1.45">
      <text x="364.6641" xml:space="preserve" y="455.7551" clip-path="url(#clipPath2)" stroke="none">cp</text>
    </g>
    <g stroke-linecap="butt" transform="matrix(1,0,0,1,63,-290)" fill="rgb(153,153,153)" text-rendering="geometricPrecision" shape-rendering="geometricPrecision" stroke="rgb(153,153,153)" stroke-miterlimit="1.45">
      <path fill="none" d="M550.6348 465.9876 L550.6348 479.8971" clip-path="url(#clipPath2)"/>
      <path d="M550.6348 483.8971 L556.6348 475.8971 L550.6348 478.8971 L544.6348 475.8971 Z" clip-path="url(#clipPath2)" stroke="none"/>
      <path fill="none" d="M510.6026 497.882 L495.5264 497.882" clip-path="url(#clipPath2)"/>
    </g>
    <g stroke-linecap="butt" transform="matrix(1,0,0,1,63,-290)" fill-opacity="0" fill="rgb(0,0,0)" text-rendering="geometricPrecision" shape-rendering="geometricPrecision" stroke="rgb(0,0,0)" stroke-opacity="0" stroke-miterlimit="1.45">
      <path d="M487.5264 497.882 C487.5264 495.6728 489.3172 493.882 491.5264 493.882 C493.7355 493.882 495.5264 495.6728 495.5264 497.882 C495.5264 500.0911 493.7355 501.882 491.5264 501.882 C489.3172 501.882 487.5264 500.0911 487.5264 497.882 Z" stroke="none" clip-path="url(#clipPath2)"/>
    </g>
    <g stroke-linecap="butt" transform="matrix(1,0,0,1,63,-290)" fill="rgb(153,153,153)" text-rendering="geometricPrecision" shape-rendering="geometricPrecision" stroke="rgb(153,153,153)" stroke-miterlimit="1.45">
      <path fill="none" d="M487.5264 497.882 C487.5264 495.6728 489.3172 493.882 491.5264 493.882 C493.7355 493.882 495.5264 495.6728 495.5264 497.882 C495.5264 500.0911 493.7355 501.882 491.5264 501.882 C489.3172 501.882 487.5264 500.0911 487.5264 497.882 Z" clip-path="url(#clipPath2)"/>
      <path fill="none" d="M435.7722 511.9002 L418.653 527.1606" clip-path="url(#clipPath2)"/>
      <path d="M415.6671 529.8222 L425.6314 528.9778 L419.3995 526.4952 L417.6465 520.0201 Z" clip-path="url(#clipPath2)" stroke="none"/>
      <path fill="none" d="M472.9083 511.9002 L496.9104 527.6155" clip-path="url(#clipPath2)"/>
      <path d="M500.2569 529.8066 L496.8506 520.4047 L496.0738 527.0677 L490.2773 530.4442 Z" clip-path="url(#clipPath2)" stroke="none"/>
    </g>
    <g stroke-linecap="round" transform="matrix(1,0,0,1,63,-290)" stroke-dashoffset="2" fill="red" text-rendering="geometricPrecision" shape-rendering="geometricPrecision" stroke-dasharray="0,4" stroke="red" stroke-miterlimit="1.45">
      <path fill="none" d="M411.4898 497.882 L31.0387 497.882 L31.0387 485.9876 L31.0387 424.0197" clip-path="url(#clipPath2)"/>
      <path d="M31.0387 420.0197 L25.0387 428.0197 L31.0387 425.0197 L37.0387 428.0197 Z" clip-path="url(#clipPath2)" stroke="none"/>
    </g>
    <g stroke-linecap="butt" transform="matrix(1,0,0,1,63,-290)" fill="rgb(153,153,153)" text-rendering="geometricPrecision" shape-rendering="geometricPrecision" stroke="rgb(153,153,153)" stroke-miterlimit="1.45">
      <path fill="none" d="M231.0309 327.6696 L39.8239 348.2097" clip-path="url(#clipPath2)"/>
      <path d="M35.8468 348.637 L44.4419 353.7482 L40.8182 348.1029 L43.1602 341.8168 Z" clip-path="url(#clipPath2)" stroke="none"/>
      <path fill="none" stroke-dasharray="0,4" d="M35.3406 376.6576 L35.3406 387.9941" stroke-dashoffset="2" clip-path="url(#clipPath2)" stroke-linecap="round"/>
    </g>
    <g stroke-linecap="round" transform="matrix(1,0,0,1,63,-290)" fill-opacity="0" stroke-dashoffset="2" fill="rgb(0,0,0)" text-rendering="geometricPrecision" shape-rendering="geometricPrecision" stroke-dasharray="0,4" stroke="rgb(0,0,0)" stroke-opacity="0" stroke-miterlimit="1.45">
      <path d="M35.3406 395.9941 C33.1315 395.9941 31.3406 394.2032 31.3406 391.9941 C31.3406 389.785 33.1315 387.9941 35.3406 387.9941 C37.5497 387.9941 39.3406 389.785 39.3406 391.9941 C39.3406 394.2032 37.5497 395.9941 35.3406 395.9941 Z" stroke="none" clip-path="url(#clipPath2)"/>
    </g>
    <g stroke-linecap="butt" transform="matrix(1,0,0,1,63,-290)" fill="rgb(153,153,153)" text-rendering="geometricPrecision" shape-rendering="geometricPrecision" stroke="rgb(153,153,153)" stroke-miterlimit="1.45">
      <path fill="none" d="M35.3406 395.9941 C33.1315 395.9941 31.3406 394.2032 31.3406 391.9941 C31.3406 389.785 33.1315 387.9941 35.3406 387.9941 C37.5497 387.9941 39.3406 389.785 39.3406 391.9941 C39.3406 394.2032 37.5497 395.9941 35.3406 395.9941 Z" clip-path="url(#clipPath2)"/>
    </g>
    <g stroke-linecap="round" transform="matrix(1,0,0,1,63,-290)" stroke-dashoffset="2" fill="red" text-rendering="geometricPrecision" shape-rendering="geometricPrecision" stroke-dasharray="0,4" stroke="red" stroke-miterlimit="1.45">
      <path fill="none" d="M411.5164 506.148 L207.5526 506.148 L207.5526 424.0447" clip-path="url(#clipPath2)"/>
      <path d="M207.5526 420.0447 L201.5526 428.0447 L207.5526 425.0447 L213.5526 428.0447 Z" clip-path="url(#clipPath2)" stroke="none"/>
      <rect x="181.619" y="512.8778" clip-path="url(#clipPath2)" fill="white" width="51.8672" height="16.8047" stroke="none"/>
    </g>
    <g stroke-linecap="butt" font-size="11px" transform="matrix(1,0,0,1,63,-290)" fill="red" text-rendering="geometricPrecision" font-family="sans-serif" shape-rendering="geometricPrecision" stroke="red" font-weight="bold" stroke-miterlimit="1.45">
      <text x="183.619" xml:space="preserve" y="525.0883" clip-path="url(#clipPath2)" stroke="none">symlink</text>
    </g>
    <g stroke-linecap="butt" transform="matrix(1,0,0,1,63,-290)" fill="rgb(153,153,153)" text-rendering="geometricPrecision" shape-rendering="geometricPrecision" stroke="rgb(153,153,153)" stroke-miterlimit="1.45">
      <path fill="none" d="M250.5289 333.2614 L231.3568 346.3661" clip-path="url(#clipPath2)"/>
      <path d="M228.0545 348.6234 L238.0448 349.0624 L232.1823 345.8018 L231.2732 339.1555 Z" clip-path="url(#clipPath2)" stroke="none"/>
      <path fill="none" stroke-dasharray="0,4" d="M207.5526 376.6576 L207.5526 387.9941" stroke-dashoffset="2" clip-path="url(#clipPath2)" stroke-linecap="round"/>
    </g>
    <g stroke-linecap="round" transform="matrix(1,0,0,1,63,-290)" fill-opacity="0" stroke-dashoffset="2" fill="rgb(0,0,0)" text-rendering="geometricPrecision" shape-rendering="geometricPrecision" stroke-dasharray="0,4" stroke="rgb(0,0,0)" stroke-opacity="0" stroke-miterlimit="1.45">
      <path d="M207.5526 395.9941 C205.3435 395.9941 203.5526 394.2032 203.5526 391.9941 C203.5526 389.785 205.3435 387.9941 207.5526 387.9941 C209.7618 387.9941 211.5526 389.785 211.5526 391.9941 C211.5526 394.2032 209.7618 395.9941 207.5526 395.9941 Z" stroke="none" clip-path="url(#clipPath2)"/>
    </g>
    <g stroke-linecap="butt" transform="matrix(1,0,0,1,63,-290)" fill="rgb(153,153,153)" text-rendering="geometricPrecision" shape-rendering="geometricPrecision" stroke="rgb(153,153,153)" stroke-miterlimit="1.45">
      <path fill="none" d="M207.5526 395.9941 C205.3435 395.9941 203.5526 394.2032 203.5526 391.9941 C203.5526 389.785 205.3435 387.9941 207.5526 387.9941 C209.7618 387.9941 211.5526 389.785 211.5526 391.9941 C211.5526 394.2032 209.7618 395.9941 207.5526 395.9941 Z" clip-path="url(#clipPath2)"/>
      <path fill="none" d="M16.4969 420.0216 L-5.8822 436.6597" clip-path="url(#clipPath2)"/>
      <path d="M-9.0922 439.0463 L0.9077 439.0882 L-5.0797 436.063 L-6.252 429.4581 Z" clip-path="url(#clipPath2)" stroke="none"/>
      <path fill="none" d="M192.933 420.0325 L177.1349 435.1831" clip-path="url(#clipPath2)"/>
      <path d="M174.248 437.9517 L184.1749 436.7449 L177.8567 434.4909 L175.8689 428.084 Z" clip-path="url(#clipPath2)" stroke="none"/>
    </g>
    <g stroke-linecap="round" transform="matrix(1,0,0,1,63,-290)" stroke-dashoffset="2" fill="red" text-rendering="geometricPrecision" shape-rendering="geometricPrecision" stroke-dasharray="0,4" stroke="red" stroke-miterlimit="1.45">
      <path fill="none" d="M516.3109 488.2086 L377.1906 379.1288" clip-path="url(#clipPath2)"/>
      <path d="M374.0428 376.6607 L376.6363 386.3185 L377.9775 379.7458 L384.0405 376.8751 Z" clip-path="url(#clipPath2)" stroke="none"/>
      <rect x="421.9314" y="414.4726" clip-path="url(#clipPath2)" fill="white" width="22.106" height="16.8047" stroke="none"/>
    </g>
    <g stroke-linecap="butt" font-size="11px" transform="matrix(1,0,0,1,63,-290)" fill="red" text-rendering="geometricPrecision" font-family="sans-serif" shape-rendering="geometricPrecision" stroke="red" font-weight="bold" stroke-miterlimit="1.45">
      <text x="423.9314" xml:space="preserve" y="426.683" clip-path="url(#clipPath2)" stroke="none">tar</text>
    </g>
    <g stroke-linecap="butt" transform="matrix(1,0,0,1,63,-290)" fill="rgb(153,153,153)" text-rendering="geometricPrecision" shape-rendering="geometricPrecision" stroke="rgb(153,153,153)" stroke-miterlimit="1.45">
      <path fill="none" d="M303.4517 333.2661 L320.0608 346.1585" clip-path="url(#clipPath2)"/>
      <path d="M323.2206 348.6112 L320.5801 338.9661 L319.2709 345.5453 L313.222 348.4455 Z" clip-path="url(#clipPath2)" stroke="none"/>
      <path fill="none" stroke-dasharray="0,4" d="M341.2898 376.6576 L341.2898 387.9941" stroke-dashoffset="2" clip-path="url(#clipPath2)" stroke-linecap="round"/>
    </g>
    <g stroke-linecap="round" transform="matrix(1,0,0,1,63,-290)" fill-opacity="0" stroke-dashoffset="2" fill="rgb(0,0,0)" text-rendering="geometricPrecision" shape-rendering="geometricPrecision" stroke-dasharray="0,4" stroke="rgb(0,0,0)" stroke-opacity="0" stroke-miterlimit="1.45">
      <path d="M341.2898 395.9941 C339.0807 395.9941 337.2898 394.2032 337.2898 391.9941 C337.2898 389.785 339.0807 387.9941 341.2898 387.9941 C343.499 387.9941 345.2898 389.785 345.2898 391.9941 C345.2898 394.2032 343.499 395.9941 341.2898 395.9941 Z" stroke="none" clip-path="url(#clipPath2)"/>
    </g>
    <g stroke-linecap="butt" transform="matrix(1,0,0,1,63,-290)" fill="rgb(153,153,153)" text-rendering="geometricPrecision" shape-rendering="geometricPrecision" stroke="rgb(153,153,153)" stroke-miterlimit="1.45">
      <path fill="none" d="M341.2898 395.9941 C339.0807 395.9941 337.2898 394.2032 337.2898 391.9941 C337.2898 389.785 339.0807 387.9941 341.2898 387.9941 C343.499 387.9941 345.2898 389.785 345.2898 391.9941 C345.2898 394.2032 343.499 395.9941 341.2898 395.9941 Z" clip-path="url(#clipPath2)"/>
      <path fill="none" d="M222.6374 420.0302 L238.9929 435.2293" clip-path="url(#clipPath2)"/>
      <path d="M241.923 437.9522 L240.1472 428.1111 L238.2603 434.5485 L231.9783 436.9015 Z" clip-path="url(#clipPath2)" stroke="none"/>
      <path fill="none" d="M48.0625 419.991 L62.6607 436.0318" clip-path="url(#clipPath2)"/>
      <path d="M65.353 438.9901 L64.4059 429.0351 L61.9877 435.2922 L55.531 437.1119 Z" clip-path="url(#clipPath2)" stroke="none"/>
      <path fill="none" d="M581.336 420.0302 L566.8696 435.0694" clip-path="url(#clipPath2)"/>
      <path d="M564.0966 437.9522 L573.9667 436.3462 L567.5628 434.3487 L565.3184 428.0271 Z" clip-path="url(#clipPath2)" stroke="none"/>
      <path fill="none" d="M609.0814 420.0114 L621.8613 432.5569" clip-path="url(#clipPath2)"/>
      <path d="M624.7158 435.359 L623.21 425.473 L621.1477 431.8564 L614.8036 434.0365 Z" clip-path="url(#clipPath2)" stroke="none"/>
    </g>
  </g>
</svg>
